#!OML:ASF Y:\EmotionMaleHayes\Project 1\Capture day 1\Session 1\Male1.ASF
:FULLY-SPECIFIED
:DEGREES
112
root 12.9371 16.9364 -1.18175 118.608 78.3525 122.188
lowerback 13.06 -3.14138 -15.3634
upperback 1.60159 -6.27149 -2.10624
thorax -4.18512 -2.78698 7.28164
lowerneck -31.0615 3.52332 2.6226
upperneck 21.8726 3.48862 0.784824
head 12.3653 1.8933 0.545889
rclavicle 3.36443e-014 1.47101e-014
rhumerus -87.2266 13.8976 -94.3388
rradius 85.9499
rwrist -22.4164
rhand -27.8272 -25.016
rfingers 7.12502
rthumb -1.21898 -54.9922
lclavicle 3.36443e-014 1.47101e-014
lhumerus -32.3227 -30.0333 96.0649
lradius 99.032
lwrist 16.5408
lhand -40.1579 -43.4955
lfingers 7.12502
lthumb -13.12 -13.9282
rfemur -30.9081 -14.8015 5.23321
rtibia 83.3393
rfoot 10.2437 34.3722
rtoes 19.2115
lfemur 15.137 0.0328812 -34.8475
ltibia 25.7121
lfoot -14.8576 2.29284
ltoes -7.21488
113
root 13.3456 17.0789 -1.1669 119.354 78.5752 122.855
lowerback 12.7264 -3.26471 -15.2723
upperback 1.42663 -6.38588 -1.96086
thorax -4.15854 -2.8447 7.38039
lowerneck -31.264 3.62139 2.67995
upperneck 22.2102 3.53354 0.990856
head 12.5335 1.94937 0.633745
rclavicle 3.75206e-015 -1.53064e-014
rhumerus -88.6396 13.6124 -94.1206
rradius 86.2352
rwrist -22.7756
rhand -28.0064 -24.6601
rfingers 7.12502
rthumb -1.39211 -54.6353
lclavicle 3.75206e-015 -1.53064e-014
lhumerus -32.6742 -30.6041 96.5301
lradius 100.399
lwrist 16.8784
lhand -39.9644 -43.8141
lfingers 7.12502
lthumb -12.9335 -14.2349
rfemur -30.751 -14.4648 5.91941
rtibia 77.443
rfoot -0.284601 2.34522
rtoes 19.2215
lfemur 16.8898 0.213636 -33.8801
ltibia 24.2271
lfoot -11.853 2.26616
ltoes -8.64539
114
root 13.7472 17.2237 -1.14099 121.461 79.4774 124.816
lowerback 12.3623 -3.39887 -14.6441
upperback 1.2748 -6.43433 -1.5768
thorax -4.13471 -2.88536 7.43309
lowerneck -31.7966 3.76413 2.91763
upperneck 22.7635 3.61008 0.964973
head 12.8586 2.00078 0.619241
rclavicle 9.86469e-015 1.86858e-014
rhumerus -89.891 13.3994 -93.8727
rradius 86.6622
rwrist -23.1633
rhand -28.046 -24.438
rfingers 7.12502
rthumb -1.43036 -54.4129
lclavicle 9.86469e-015 1.86858e-014
lhumerus -33.0423 -31.1333 96.8975
lradius 101.776
lwrist 17.2841
lhand -39.7252 -44.1189
lfingers 7.12502
lthumb -12.7029 -14.5253
rfemur -30.5847 -13.7055 7.62045
rtibia 72.2644
rfoot -1.34678 -0.283386
rtoes 18.2185
lfemur 18.4141 0.555548 -31.8558
ltibia 22.8031
lfoot -8.58643 2.21373
ltoes -9.76254
115
root 14.1629 17.3649 -1.11946 122.613 80.1435 125.913
lowerback 11.9416 -3.5131 -14.2819
upperback 1.1461 -6.48117 -1.26578
thorax -4.03319 -2.92531 7.54214
lowerneck -32.308 3.90078 3.25605
upperneck 23.3648 3.71442 0.658454
head 13.2129 2.03139 0.48417
rclavicle 6.35241e-014 6.02318e-014
rhumerus -91.1848 13.2351 -93.5866
rradius 87.187
rwrist -23.5584
rhand -27.8367 -24.581
rfingers 7.12502
rthumb -1.22824 -54.5572
lclavicle 6.35241e-014 6.02318e-014
lhumerus -33.4818 -31.6785 97.2612
lradius 102.993
lwrist 17.5073
lhand -39.7441 -44.194
lfingers 7.12502
lthumb -12.721 -14.6015
rfemur -29.9573 -12.9933 8.77409
rtibia 66.6707
rfoot -1.80789 -1.95481
rtoes 18.0431
lfemur 20.0404 0.945303 -30.2151
ltibia 21.4204
lfoot -5.44572 2.09852
ltoes -8.46119
116
root 14.6148 17.4955 -1.12213 119.147 78.8119 122.633
lowerback 11.3958 -3.60153 -15.6906
upperback 1.14054 -6.67726 -1.63868
thorax -3.57646 -3.02817 7.86743
lowerneck -31.9014 3.97878 2.99391
upperneck 23.1134 3.83357 1.09732
head 13.0206 2.12666 0.711571
rclavicle -3.0501e-014 -6.04305e-014
rhumerus -92.3639 12.8819 -93.3014
rradius 87.5768
rwrist -23.6431
rhand -27.654 -25.0935
rfingers 7.12502
rthumb -1.05178 -55.0707
lclavicle -3.0501e-014 -6.04305e-014
lhumerus -34.0491 -32.3704 97.6446
lradius 104.217
lwrist 17.6472
lhand -39.7652 -44.2165
lfingers 7.12502
lthumb -12.7414 -14.6252
rfemur -28.475 -13.4775 6.90579
rtibia 60.8896
rfoot -1.67881 -2.52793
rtoes 19.6071
lfemur 22.0048 1.3197 -31.3156
ltibia 20.1626
lfoot -2.6645 1.86643
ltoes -5.03148
117
root 15.0216 17.6178 -1.09355 118.183 78.7001 121.531
lowerback 10.9808 -3.59875 -16.2387
upperback 1.02433 -6.67334 -1.57128
thorax -3.40285 -3.02843 8.20089
lowerneck -32.4395 3.98189 3.18592
upperneck 23.5723 3.73531 1.05517
head 13.3125 2.09538 0.663059
rclavicle -5.27401e-015 7.43455e-014
rhumerus -93.1681 12.5375 -92.9846
rradius 87.8145
rwrist -23.7343
rhand -27.6614 -24.7748
rfingers 7.12502
rthumb -1.05885 -54.752
lclavicle -5.27401e-015 7.43455e-014
lhumerus -34.4248 -33.1388 97.8864
lradius 105.439
lwrist 18.0059
lhand -39.5134 -44.788
lfingers 7.12502
lthumb -12.4986 -15.1818
rfemur -27.8429 -13.0191 7.05063
rtibia 55.5364
rfoot -1.92174 -3.65922
rtoes 20.3558
lfemur 23.1585 1.52827 -30.7568
ltibia 19.4199
lfoot -0.404274 1.82267
ltoes -1.50031
118
root 15.4206 17.727 -1.06392 117.747 78.3407 120.75
lowerback 10.5488 -3.67096 -17.0497
upperback 0.792675 -6.80353 -1.46533
thorax -3.27646 -3.08078 8.73218
lowerneck -32.8849 4.09177 3.46122
upperneck 24.0038 3.80721 0.826241
head 13.5867 2.11748 0.558382
rclavicle 3.43276e-014 -1.92821e-014
rhumerus -94.0343 12.4389 -92.681
rradius 88.2551
rwrist -24.0669
rhand -27.6872 -24.4624
rfingers 7.12502
rthumb -1.08379 -54.4394
lclavicle 3.43276e-014 -1.92821e-014
lhumerus -34.905 -33.9454 98.2797
lradius 106.485
lwrist 18.056
lhand -38.6264 -46.1457
lfingers 7.12502
lthumb -11.6433 -16.4892
rfemur -27.2802 -12.7804 6.92312
rtibia 50.0705
rfoot -1.79746 -4.44318
rtoes 18.5225
lfemur 23.8636 1.51251 -30.536
ltibia 19.1805
lfoot 1.33221 1.77359
ltoes 0.717502
119
root 15.8207 17.8281 -1.04217 116.834 77.8464 119.468
lowerback 10.0623 -3.72202 -17.84
upperback 0.537545 -6.88957 -1.47745
thorax -3.17289 -3.10557 9.11509
lowerneck -33.0876 4.12837 3.64335
upperneck 24.3253 3.83965 0.580578
head 13.7702 2.11159 0.446281
rclavicle 1.67134e-014 2.56432e-014
rhumerus -95.0535 12.2602 -92.4396
rradius 89.0394
rwrist -24.3781
rhand -27.5109 -25.2036
rfingers 7.12502
rthumb -0.913556 -55.1813
lclavicle 1.67134e-014 2.56432e-014
lhumerus -35.9069 -34.7687 98.949
lradius 107.506
lwrist 17.506
lhand -38.1711 -46.8415
lfingers 7.12502
lthumb -11.2043 -17.1607
rfemur -26.5027 -12.6481 6.5123
rtibia 44.3075
rfoot -0.914976 -5.13216
rtoes 15.4764
lfemur 24.3543 1.45988 -30.6862
ltibia 19.454
lfoot 2.19578 1.90742
ltoes 2.83263
120
root 16.2282 17.918 -1.02775 116.144 77.583 118.503
lowerback 9.46328 -3.81153 -18.2967
upperback 0.256364 -6.96549 -1.45544
thorax -3.07072 -3.13036 9.343
lowerneck -32.8346 4.17195 3.81698
upperneck 24.5796 3.90127 0.37599
head 13.8418 2.12681 0.348554
rclavicle 5.454e-014 -2.67862e-014
rhumerus -96.153 12.182 -92.229
rradius 89.7043
rwrist -24.6199
rhand -27.3239 -25.4026
rfingers 7.12502
rthumb -0.732879 -55.3811
lclavicle 5.454e-014 -2.67862e-014
lhumerus -37.3517 -35.1642 99.7711
lradius 108.523
lwrist 17.0059
lhand -39.8793 -45.9908
lfingers 7.12502
lthumb -12.8515 -16.4065
rfemur -25.3884 -12.365 6.30697
rtibia 38.3839
rfoot 0.218276 -6.06391
rtoes 14.6036
lfemur 24.8004 1.23999 -30.8379
ltibia 20.3345
lfoot 1.88294 2.46494
ltoes 4.18538
121
root 16.637 17.9879 -1.01848 115.884 77.7341 117.966
lowerback 8.71921 -3.87477 -18.3173
upperback 0.127732 -6.90815 -1.33187
thorax -2.79236 -3.12526 9.41565
lowerneck -32.94 4.26899 4.07884
upperneck 24.8084 3.97121 0.174975
head 13.9722 2.1523 0.245302
rclavicle -6.70227e-014 1.48219e-014
rhumerus -96.8202 12.1565 -91.9296
rradius 90.0949
rwrist -24.9525
rhand -27.3027 -24.5029
rfingers 7.12502
rthumb -0.712492 -54.4814
lclavicle -6.70227e-014 1.48219e-014
lhumerus -38.3501 -35.4514 100.225
lradius 109.479
lwrist 16.9963
lhand -39.2237 -46.4301
lfingers 7.12502
lthumb -12.2193 -16.807
rfemur -24.2703 -11.7563 6.56124
rtibia 32.5653
rfoot 1.13222 -7.24017
rtoes 16.4892
lfemur 25.0804 0.935338 -30.6986
ltibia 21.8131
lfoot 0.755111 3.69579
ltoes 4.73646
122
root 17.0369 18.0387 -1.01364 116.577 77.9538 118.314
lowerback 8.11022 -3.97031 -18.1126
upperback -0.0248616 -6.90675 -1.1386
thorax -2.6162 -3.14124 9.46121
lowerneck -33.2879 4.32331 4.08616
upperneck 25.0793 4.04581 0.119332
head 14.1564 2.1751 0.247232
rclavicle 2.64461e-014 -9.93923e-015
rhumerus -97.3492 12.242 -91.566
rradius 90.5716
rwrist -25.3001
rhand -27.3621 -23.5129
rfingers 7.12502
rthumb -0.769783 -53.4913
lclavicle 2.64461e-014 -9.93923e-015
lhumerus -39.4569 -35.7024 100.755
lradius 110.617
lwrist 17.0696
lhand -38.3092 -47.6473
lfingers 7.12502
lthumb -11.3374 -17.9738
rfemur -23.3672 -11.2413 6.97367
rtibia 27.2354
rfoot 1.79363 -8.42751
rtoes 18.7797
lfemur 25.0125 0.695382 -30.2717
ltibia 23.7228
lfoot -0.282307 5.26355
ltoes 6.74773
123
root 17.437 18.0737 -1.01626 118.25 78.0663 119.678
lowerback 7.61346 -4.14347 -17.8
upperback -0.238228 -7.03318 -0.935338
thorax -2.54329 -3.20854 9.47733
lowerneck -33.4036 4.33266 3.94813
upperneck 25.2606 4.13974 0.0786946
head 14.2552 2.19461 0.277446
rclavicle -6.18842e-014 -1.60022e-014
rhumerus -97.942 12.4423 -91.2313
rradius 91.2175
rwrist -25.4814
rhand -27.321 -23.2109
rfingers 7.12502
rthumb -0.730122 -53.1894
lclavicle -6.18842e-014 -1.60022e-014
lhumerus -40.6228 -36.2169 101.456
lradius 111.692
lwrist 16.8278
lhand -40.4526 -46.4688
lfingers 7.12502
lthumb -13.4041 -16.92
rfemur -22.4708 -11.1889 7.36966
rtibia 22.4492
rfoot 2.73628 -9.16225
rtoes 19.4512
lfemur 24.8689 0.491286 -29.7538
ltibia 25.8967
lfoot -0.739811 6.61928
ltoes 7.70555
124
root 17.8506 18.0883 -1.02596 120.392 78.2006 121.615
lowerback 6.96488 -4.41022 -17.3681
upperback -0.344082 -7.23276 -0.739933
thorax -2.25985 -3.33961 9.39428
lowerneck -33.2249 4.42847 4.02528
upperneck 25.1451 4.32542 -0.163429
head 14.184 2.24399 0.200976
rclavicle 4.86386e-014 3.21037e-014
rhumerus -98.3852 12.8138 -90.9682
rradius 91.8475
rwrist -25.5405
rhand -27.0938 -23.002
rfingers 7.12502
rthumb -0.510721 -52.9812
lclavicle 4.86386e-014 3.21037e-014
lhumerus -41.0771 -37.2043 101.775
lradius 112.272
lwrist 16.7177
lhand -38.7248 -47.8747
lfingers 7.12502
lthumb -11.7383 -18.2236
rfemur -21.5884 -11.8819 7.92626
rtibia 18.3545
rfoot 4.16082 -8.92751
rtoes 19.0199
lfemur 24.9026 0.291321 -29.1922
ltibia 28.2266
lfoot -0.956807 7.54095
ltoes 6.66174
125
root 18.2654 18.0802 -1.03491 122.865 78.5029 123.932
lowerback 6.28851 -4.65497 -16.6898
upperback -0.356837 -7.37744 -0.540631
thorax -1.90467 -3.45791 9.16776
lowerneck -33.3668 4.51811 4.3129
upperneck 25.2171 4.43919 -0.58449
head 14.2647 2.2541 0.0103064
rclavicle 5.60417e-014 -6.54002e-014
rhumerus -98.6696 13.1307 -90.7075
rradius 92.6586
rwrist -25.5609
rhand -26.9857 -23.2143
rfingers 7.12502
rthumb -0.406316 -53.1937
lclavicle 5.60417e-014 -6.54002e-014
lhumerus -41.8721 -37.5263 102.032
lradius 113.006
lwrist 16.7812
lhand -38.0568 -48.4579
lfingers 7.12502
lthumb -11.0941 -18.7711
rfemur -20.9151 -13.0181 8.80296
rtibia 14.9179
rfoot 5.57121 -8.02859
rtoes 19.9285
lfemur 24.919 0.0435709 -28.4466
ltibia 30.7184
lfoot -1.05873 8.01208
ltoes 5.46333
